<svg xmlns="http://www.w3.org/2000/svg" xmlns:xlink="http://www.w3.org/1999/xlink" viewBox="0 0 185.74 185.86"><defs><style>.cls-1,.cls-20,.cls-25,.cls-26,.cls-27{isolation:isolate;}.cls-2{fill:url(#radial-gradient);}.cls-3{fill:url(#radial-gradient-2);}.cls-4{fill:url(#radial-gradient-3);}.cls-5{fill:url(#radial-gradient-4);}.cls-6{fill:url(#radial-gradient-5);}.cls-7{fill:url(#radial-gradient-6);}.cls-8{fill:url(#radial-gradient-7);}.cls-9{fill-opacity:0;stroke:#000;stroke-miterlimit:5.07;stroke-opacity:0.7;stroke-width:3.62px;mix-blend-mode:darken;}.cls-10{stroke-miterlimit:5.02;stroke-width:2.39px;fill:url(#linear-gradient);stroke:url(#linear-gradient-2);}.cls-11{fill:url(#radial-gradient-8);}.cls-12,.cls-17{fill:#ff9;}.cls-13{fill:#fff;fill-opacity:0.71;}.cls-13,.cls-14,.cls-15,.cls-17,.cls-18,.cls-19,.cls-22,.cls-23,.cls-24,.cls-25,.cls-26,.cls-27{fill-rule:evenodd;}.cls-14{fill:url(#linear-gradient-3);}.cls-15{fill:url(#linear-gradient-4);}.cls-16,.cls-20{opacity:0.51;}.cls-17{fill-opacity:0.78;}.cls-18{fill:url(#linear-gradient-5);}.cls-19{fill:url(#linear-gradient-6);}.cls-20{fill:url(#linear-gradient-7);}.cls-21{opacity:0.24;}.cls-22{fill:url(#linear-gradient-8);}.cls-23{fill:url(#linear-gradient-9);}.cls-24{fill:url(#linear-gradient-10);}.cls-25,.cls-26,.cls-27{opacity:0.38;}.cls-25{fill:url(#linear-gradient-11);}.cls-26{fill:url(#linear-gradient-12);}.cls-27{fill:url(#linear-gradient-13);}</style><radialGradient id="radial-gradient" cx="55.09" cy="133.54" r="99" gradientTransform="matrix(1.27, 0, 0, -1.27, 35.53, 234.8)" gradientUnits="userSpaceOnUse"><stop offset="0" stop-color="#cafd40"/><stop offset="0.39" stop-color="#bfff56"/><stop offset="0.79" stop-color="#96be32"/><stop offset="1" stop-color="#6c6c53"/></radialGradient><radialGradient id="radial-gradient-2" cx="345.65" cy="95.36" r="48.62" gradientTransform="matrix(1.23, 0, 0, -1.38, -275.64, 243.8)" gradientUnits="userSpaceOnUse"><stop offset="0" stop-color="#fff"/><stop offset="0.5" stop-color="#d9d9d9"/><stop offset="1" stop-color="#8a8a8a"/></radialGradient><radialGradient id="radial-gradient-3" cx="253.52" cy="265.04" r="43.83" gradientTransform="matrix(1.57, 0.42, 0.46, -1.72, -457.88, 388.27)" xlink:href="#radial-gradient-2"/><radialGradient id="radial-gradient-4" cx="240.87" cy="213.16" r="47.75" gradientTransform="matrix(2.01, 0, 0, -2.26, -284.27, 654.13)" xlink:href="#radial-gradient-2"/><radialGradient id="radial-gradient-5" cx="271.65" cy="198.26" r="44.16" gradientTransform="matrix(2.31, 0, 0, -2.59, -459.45, 622.7)" xlink:href="#radial-gradient-2"/><radialGradient id="radial-gradient-6" cx="267.51" cy="257.47" r="43.83" gradientTransform="matrix(1.65, 0.44, 0.48, -1.81, -475.7, 426.05)" xlink:href="#radial-gradient-2"/><radialGradient id="radial-gradient-7" cx="156.71" cy="310.1" r="42.66" gradientTransform="matrix(3.23, 0, 0, -3.54, -435.32, 1130.03)" xlink:href="#radial-gradient-2"/><linearGradient id="linear-gradient" x1="85.51" y1="161.28" x2="85.51" y2="99.16" gradientTransform="matrix(1.26, 0, 0, -1.26, 7.36, 224.72)" gradientUnits="userSpaceOnUse"><stop offset="0" stop-color="#7f7373"/><stop offset="1" stop-color="#706e6e"/></linearGradient><linearGradient id="linear-gradient-2" x1="85.51" y1="162.23" x2="85.51" y2="123.78" gradientTransform="matrix(1.26, 0, 0, -1.26, 7.36, 224.72)" gradientUnits="userSpaceOnUse"><stop offset="0" stop-color="#dedede"/><stop offset="1" stop-color="#1e1e1e"/></linearGradient><radialGradient id="radial-gradient-8" cx="119.59" cy="89.35" r="30.11" gradientTransform="matrix(1.1, 0, 0, -1.1, -16.34, 158.54)" gradientUnits="userSpaceOnUse"><stop offset="0" stop-color="#ff7020"/><stop offset="0.28" stop-color="#df0000"/><stop offset="0.35" stop-color="#b10000"/><stop offset="0.52" stop-color="#5b0000"/><stop offset="0.71" stop-color="#1e0000"/><stop offset="1"/></radialGradient><linearGradient id="linear-gradient-3" x1="172.49" y1="53.31" x2="184.86" y2="39.52" gradientTransform="matrix(0.86, -0.01, -0.01, -0.86, -15.14, 85)" gradientUnits="userSpaceOnUse"><stop offset="0" stop-color="#fff"/><stop offset="1" stop-color="#fff" stop-opacity="0"/></linearGradient><linearGradient id="linear-gradient-4" x1="-456.87" y1="9.5" x2="-444.49" y2="-4.29" gradientTransform="matrix(-0.79, 0.15, -0.13, -0.86, -264.36, 111.66)" xlink:href="#linear-gradient-3"/><linearGradient id="linear-gradient-5" x1="71.75" y1="87.11" x2="73.69" y2="84.39" gradientTransform="matrix(1.2, 0, 0, -0.96, 33.3, 137.72)" gradientUnits="userSpaceOnUse"><stop offset="0" stop-color="#ff9"/><stop offset="1" stop-color="#ff9" stop-opacity="0"/></linearGradient><linearGradient id="linear-gradient-6" x1="63.86" y1="87.02" x2="62.14" y2="84.08" xlink:href="#linear-gradient-5"/><linearGradient id="linear-gradient-7" x1="-455.64" y1="179.73" x2="-446.09" y2="178.79" gradientTransform="matrix(-1.19, -0.11, 0.12, -1.14, -443.24, 199.6)" gradientUnits="userSpaceOnUse"><stop offset="0" stop-color="#ff0707"/><stop offset="1" stop-color="#d40000" stop-opacity="0"/></linearGradient><linearGradient id="linear-gradient-8" x1="348.39" y1="-218.28" x2="352.99" y2="-222.62" gradientTransform="matrix(0.57, 0, 0, -0.53, -78.08, -61.06)" xlink:href="#linear-gradient-5"/><linearGradient id="linear-gradient-9" x1="353.89" y1="-212.46" x2="358.49" y2="-216.8" gradientTransform="matrix(0.57, 0, 0, -0.53, -78.08, -61.06)" xlink:href="#linear-gradient-5"/><linearGradient id="linear-gradient-10" x1="335.48" y1="-231.95" x2="340.08" y2="-236.29" gradientTransform="matrix(0.57, 0, 0, -0.53, -78.08, -61.06)" xlink:href="#linear-gradient-5"/><linearGradient id="linear-gradient-11" x1="108.09" y1="129.09" x2="104.39" y2="124.67" gradientTransform="matrix(1, 0, 0, -1.11, -3.34, 198.42)" gradientUnits="userSpaceOnUse"><stop offset="0" stop-color="#eee"/><stop offset="1" stop-color="#eee" stop-opacity="0"/></linearGradient><linearGradient id="linear-gradient-12" x1="51.16" y1="168.25" x2="48.47" y2="162.49" gradientTransform="matrix(1.2, 0, 0, -1.2, 37.2, 248.61)" xlink:href="#linear-gradient-11"/><linearGradient id="linear-gradient-13" x1="-437.96" y1="168.26" x2="-440.65" y2="162.49" gradientTransform="translate(-391.6 248.61) rotate(180) scale(1.2)" xlink:href="#linear-gradient-11"/></defs><g class="cls-1"><g id="svg2"><g id="layer1"><path id="path2985" class="cls-2" d="M93.61.94a94,94,0,0,0-9.4.49,15.51,15.51,0,0,1-6.82,3.25c-3.37.77-6.55.57-8.59-.38A93,93,0,0,0,1.76,80c1.48,1.89,1.74,5.81.46,10A17.76,17.76,0,0,1,.69,93.48s0,0,0,0v.34a92.94,92.94,0,0,0,92.49,93,14.4,14.4,0,0,1,8-2.1,16.64,16.64,0,0,1,6.12,1.09s0,0,0,0a93,93,0,0,0,79.06-87.45,19.82,19.82,0,0,1-1.35-7.59,21.1,21.1,0,0,1,.95-6.53A92.94,92.94,0,0,0,93.61.94Z" transform="translate(-0.69 -0.94)"/><path id="path2998" class="cls-3" d="M185.46,86.52c-27.57,9.7-54.54,32.33-73,64.34A162.41,162.41,0,0,0,97.6,185a19,19,0,0,1,3.63-.35,18.53,18.53,0,0,1,3.5.35c15.18-39.93,46.08-74.48,80.76-89.95a22.9,22.9,0,0,1-.4-4.35,23.42,23.42,0,0,1,.37-4.22Z" transform="translate(-0.69 -0.94)"/><path id="path3009" class="cls-4" d="M80.78,3.56a18.46,18.46,0,0,1-3.39,1.12,18.17,18.17,0,0,1-4.57.46c-14.73,33.3-40.95,61.79-70.41,76,.82,2,.84,5.15-.11,8.42C27.39,79.86,51.7,59,68.56,30A153.92,153.92,0,0,0,80.78,3.56Z" transform="translate(-0.69 -0.94)"/><path id="path3917" class="cls-5" d="M185.36,86.56c-27.57,9.7-54.54,32.33-73,64.34A162.41,162.41,0,0,0,97.5,185.08a18.72,18.72,0,0,1,2.88-.29,161.91,161.91,0,0,1,14.75-33.89c17.81-30.86,43.53-53,70.06-63.25.05-.37.1-.74.17-1.09Zm-81.44,98.17c-.46,0-.89.06-1.33.09a18.31,18.31,0,0,1,2,.26l.12-.32Z" transform="translate(-0.69 -0.94)"/><path id="path3938" class="cls-6" d="M185.29,93.88c-25.69,10.61-50.44,32.38-67.73,62.33A161.91,161.91,0,0,0,104.48,185c.47.09.91.2,1.35.32a162.24,162.24,0,0,1,12.42-27c17.23-29.85,41.86-51.53,67.47-62.18a18.16,18.16,0,0,1-.43-2.24Z" transform="translate(-0.69 -0.94)"/><path id="path3962" class="cls-7" d="M70.89,4.94C56.2,37.42,30.62,65.19,1.84,79.39c0,.2-.06.39-.09.58a5,5,0,0,1,.66,1.21c29.46-14.25,55.68-42.74,70.41-76a14.13,14.13,0,0,1-1.93-.2Z" transform="translate(-0.69 -0.94)"/><path id="path3980" class="cls-8" d="M80.78,3.56a17.49,17.49,0,0,1-1.64.63A153.56,153.56,0,0,1,67.41,29.34c-16.52,28.43-40.21,49-64.77,59-.09.43-.22.85-.34,1.29C27.4,79.86,51.7,59,68.56,30A153.92,153.92,0,0,0,80.78,3.56Z" transform="translate(-0.69 -0.94)"/></g><g id="g2942"><path id="path11039" class="cls-9" d="M152.93,60.61a38.19,38.19,0,1,1-38.19-38.19A38.19,38.19,0,0,1,152.93,60.61Z" transform="translate(-0.69 -0.94)"/><path id="path2235" class="cls-10" d="M152.54,60.61a37.81,37.81,0,1,1-37.8-37.81A37.8,37.8,0,0,1,152.54,60.61Z" transform="translate(-0.69 -0.94)"/><path id="path10190" class="cls-11" d="M147.74,60.61a33,33,0,1,1-33-33A33,33,0,0,1,147.74,60.61Z" transform="translate(-0.69 -0.94)"/><path id="path4275" class="cls-12" d="M116.87,60.17A1.88,1.88,0,1,1,115,58.28,1.88,1.88,0,0,1,116.87,60.17Z" transform="translate(-0.69 -0.94)"/><path id="path13952" class="cls-13" d="M115.27,30.63c-4-.16-10.35.53-14.53,3.17a17.92,17.92,0,0,0,1.69,4.41,26.74,26.74,0,0,1,12.17-2.5,37.3,37.3,0,0,1,12.28,2.9,26.55,26.55,0,0,0,1.86-4.44,27.51,27.51,0,0,0-13.47-3.54Z" transform="translate(-0.69 -0.94)"/><path id="path15909" class="cls-14" d="M142.57,47.75c-.71-3-4.74-7.22-6.55-8.36A12.1,12.1,0,0,0,134,41.87c2.11,1.3,5.51,3.36,7,6.47a9.16,9.16,0,0,0,1.65-.59Z" transform="translate(-0.69 -0.94)"/><path id="path15919" class="cls-15" d="M87.74,51.56c.15-3.11,4.2-10.49,5.67-12a11.4,11.4,0,0,1,2.33,2.1c-1.73,1.68-5.54,6.21-6.36,9.58C88.18,51.09,88.49,51.8,87.74,51.56Z" transform="translate(-0.69 -0.94)"/><g id="g15961" class="cls-16"><path id="path15923" class="cls-17" d="M115.06,51.61a5.52,5.52,0,0,0-3.37,1.2c.07.4.13.14.37.73a5.33,5.33,0,0,1,3-.75,7.59,7.59,0,0,1,3,.87c.28-.7.34-.55.45-.95a6.16,6.16,0,0,0-3.38-1.1Z" transform="translate(-0.69 -0.94)"/><path id="path15925" class="cls-18" d="M121.35,56a5.39,5.39,0,0,0-1.49-2.39,3.13,3.13,0,0,0-.49.7,4.51,4.51,0,0,1,1.6,1.85,2.25,2.25,0,0,0,.38-.16Z" transform="translate(-0.69 -0.94)"/><path id="path15927" class="cls-19" d="M108.12,56.58a8.39,8.39,0,0,1,1.85-3,3.5,3.5,0,0,1,.49.7,6.72,6.72,0,0,0-1.93,2.3c-.28-.12-.23.09-.41,0Z" transform="translate(-0.69 -0.94)"/></g><path id="rect17940" class="cls-20" d="M121.11,45.41c-3.69-1.93-9.5.09-12,1.27-3.77,1.75,1.55.63,3.42-.17,1.6-.7,3.77-1.1,8.16.15,1.63,0,1.14-.78.47-1.25Z" transform="translate(-0.69 -0.94)"/><g id="g18935" class="cls-21"><path id="path18937" class="cls-22" d="M115.32,47.61a9.45,9.45,0,0,0-4.4,1.33,6,6,0,0,0,.73,1.77,7.16,7.16,0,0,1,3.53-1.39,7.8,7.8,0,0,1,3.06.64,12,12,0,0,1,.74-1.44,10.29,10.29,0,0,0-3.66-.91Z" transform="translate(-0.69 -0.94)"/><path id="path18939" class="cls-23" d="M127.24,53.31a5.73,5.73,0,0,0-1.87-1.61,5.45,5.45,0,0,0-1,1.08,10.79,10.79,0,0,1,1.93,1.3C126.77,53.76,126.88,53.47,127.24,53.31Z" transform="translate(-0.69 -0.94)"/><path id="path18941" class="cls-24" d="M102.24,54.07a14.88,14.88,0,0,1,2.05-2.17c.39.29,1,.64,1.6,1a10.17,10.17,0,0,0-2,1.69C103.32,54.43,102.6,54.23,102.24,54.07Z" transform="translate(-0.69 -0.94)"/></g><path id="path2237" class="cls-25" d="M114.68,40.11a29.28,29.28,0,0,0-7.12,1.45c.27,1.31.4,2,.49,2.82A19.32,19.32,0,0,1,114.84,43a24.67,24.67,0,0,1,6.17,1.2,26.94,26.94,0,0,1,.92-3.06,28.72,28.72,0,0,0-7.25-1Z" transform="translate(-0.69 -0.94)"/><path id="path2241" class="cls-26" d="M94.24,49.32a26.09,26.09,0,0,1,3.5-4.13c.67.6,2.42,1.78,3.4,2.56a41.09,41.09,0,0,0-3.55,3c-1-.38-2.73-1.08-3.35-1.42Z" transform="translate(-0.69 -0.94)"/><path id="path2938" class="cls-27" d="M139.14,49.32a25.68,25.68,0,0,0-3.51-4.13c-.67.6-2.42,1.78-3.39,2.56a40.66,40.66,0,0,1,3.54,3c1-.38,2.73-1.08,3.36-1.42Z" transform="translate(-0.69 -0.94)"/></g></g></g></svg>